# xmcd
# Track frame offsets:
# 150
# 15506
# 33566
# 46152
# 58606
# 77522
# 99938
# 127219
# 155587
# 214374
# 227484
#
# Disc length: 3253 seconds
# Revision: 1
# Processed by: cddbd v1.5.2PL0 Copyright (c) Steve Scherf et al.
# Submitted via: VisiTrax 2.10.0.248 - For more info visit www.synapsa.com
#
DISCID=880cb30b
DTITLE=Goodman, Benny - Complete Legendary 1938 Carnegie Hall Concert Disk 2
DYEAR=1938
DGENRE=Jazz - Live
TTITLE0=Blue Skies
TTITLE1=Loch Lomond
TTITLE2=Blue Room
TTITLE3=Swintime in the Rockies
TTITLE4=Bei Mir Bist Du Schoen
TTITLE5=China Boy
TTITLE6=Stompin' At The Savoy
TTITLE7=Dizzy Spells
TTITLE8=Sing Sing Sing (With A Swing)
TTITLE9=If Dreams Come True
TTITLE10=Big John's Special
EXTD=
EXTT0=
EXTT1=
EXTT2=
EXTT3=
EXTT4=
EXTT5=
EXTT6=
EXTT7=
EXTT8=
EXTT9=
EXTT10=
PLAYORDER=
